{
    "asset" : {
        "generator" : "Khronos glTF Blender I/O v1.0.5",
        "version" : "2.0"
    },
    "scene" : 0,
    "scenes" : [
        {
            "name" : "Scene",
            "nodes" : [
                0
            ]
        }
    ],
    "nodes" : [
        {
            "mesh" : 0,
            "name" : "AsteroidB4"
        }
    ],
    "materials" : [
        {
            "doubleSided" : true,
            "name" : "asteroid_material_texture",
            "pbrMetallicRoughness" : {
                "baseColorTexture" : {
                    "index" : 0,
                    "texCoord" : 0
                },
                "metallicFactor" : 0,
                "roughnessFactor" : 1
            }
        }
    ],
    "meshes" : [
        {
            "name" : "Cube.005",
            "primitives" : [
                {
                    "attributes" : {
                        "POSITION" : 0,
                        "NORMAL" : 1,
                        "TEXCOORD_0" : 2
                    },
                    "indices" : 3,
                    "material" : 0
                }
            ]
        }
    ],
    "textures" : [
        {
            "source" : 0
        }
    ],
    "images" : [
        {
            "mimeType" : "image/png",
            "name" : "rocktex",
            "uri" : "rocktex.png"
        }
    ],
    "accessors" : [
        {
            "bufferView" : 0,
            "componentType" : 5126,
            "count" : 1845,
            "max" : [
                0.7754884958267212,
                1.0094380378723145,
                0.8144025206565857
            ],
            "min" : [
                -0.34712955355644226,
                -0.303573340177536,
                -0.3705725073814392
            ],
            "type" : "VEC3"
        },
        {
            "bufferView" : 1,
            "componentType" : 5126,
            "count" : 1845,
            "type" : "VEC3"
        },
        {
            "bufferView" : 2,
            "componentType" : 5126,
            "count" : 1845,
            "type" : "VEC2"
        },
        {
            "bufferView" : 3,
            "componentType" : 5123,
            "count" : 10752,
            "type" : "SCALAR"
        }
    ],
    "bufferViews" : [
        {
            "buffer" : 0,
            "byteLength" : 22140,
            "byteOffset" : 0
        },
        {
            "buffer" : 0,
            "byteLength" : 22140,
            "byteOffset" : 22140
        },
        {
            "buffer" : 0,
            "byteLength" : 14760,
            "byteOffset" : 44280
        },
        {
            "buffer" : 0,
            "byteLength" : 21504,
            "byteOffset" : 59040
        }
    ],
    "buffers" : [
        {
            "byteLength" : 80544,
            "uri" : "b4.bin"
        }
    ]
}
