{
    "asset" : {
        "generator" : "Khronos glTF Blender I/O v1.0.5",
        "version" : "2.0"
    },
    "scene" : 0,
    "scenes" : [
        {
            "name" : "Scene",
            "nodes" : [
                0
            ]
        }
    ],
    "nodes" : [
        {
            "mesh" : 0,
            "name" : "AsteroidC3"
        }
    ],
    "materials" : [
        {
            "doubleSided" : true,
            "name" : "asteroid_material_texture",
            "pbrMetallicRoughness" : {
                "baseColorTexture" : {
                    "index" : 0,
                    "texCoord" : 0
                },
                "metallicFactor" : 0,
                "roughnessFactor" : 1
            }
        }
    ],
    "meshes" : [
        {
            "name" : "Icosphere.004",
            "primitives" : [
                {
                    "attributes" : {
                        "POSITION" : 0,
                        "NORMAL" : 1,
                        "TEXCOORD_0" : 2
                    },
                    "indices" : 3,
                    "material" : 0
                }
            ]
        }
    ],
    "textures" : [
        {
            "source" : 0
        }
    ],
    "images" : [
        {
            "mimeType" : "image/png",
            "name" : "rocktex",
            "uri" : "rocktex.png"
        }
    ],
    "accessors" : [
        {
            "bufferView" : 0,
            "componentType" : 5126,
            "count" : 265,
            "max" : [
                0.7657104134559631,
                0.9068705439567566,
                0.66091388463974
            ],
            "min" : [
                -0.7479104995727539,
                -0.7481085062026978,
                -0.707938551902771
            ],
            "type" : "VEC3"
        },
        {
            "bufferView" : 1,
            "componentType" : 5126,
            "count" : 265,
            "type" : "VEC3"
        },
        {
            "bufferView" : 2,
            "componentType" : 5126,
            "count" : 265,
            "type" : "VEC2"
        },
        {
            "bufferView" : 3,
            "componentType" : 5123,
            "count" : 1434,
            "type" : "SCALAR"
        }
    ],
    "bufferViews" : [
        {
            "buffer" : 0,
            "byteLength" : 3180,
            "byteOffset" : 0
        },
        {
            "buffer" : 0,
            "byteLength" : 3180,
            "byteOffset" : 3180
        },
        {
            "buffer" : 0,
            "byteLength" : 2120,
            "byteOffset" : 6360
        },
        {
            "buffer" : 0,
            "byteLength" : 2868,
            "byteOffset" : 8480
        }
    ],
    "buffers" : [
        {
            "byteLength" : 11348,
            "uri" : "c3.bin"
        }
    ]
}
