{
    "asset" : {
        "generator" : "Khronos glTF Blender I/O v1.0.5",
        "version" : "2.0"
    },
    "scene" : 0,
    "scenes" : [
        {
            "name" : "Scene",
            "nodes" : [
                0
            ]
        }
    ],
    "nodes" : [
        {
            "mesh" : 0,
            "name" : "AsteroidC4"
        }
    ],
    "materials" : [
        {
            "doubleSided" : true,
            "name" : "asteroid_material_texture",
            "pbrMetallicRoughness" : {
                "baseColorTexture" : {
                    "index" : 0,
                    "texCoord" : 0
                },
                "metallicFactor" : 0,
                "roughnessFactor" : 1
            }
        }
    ],
    "meshes" : [
        {
            "name" : "Icosphere.005",
            "primitives" : [
                {
                    "attributes" : {
                        "POSITION" : 0,
                        "NORMAL" : 1,
                        "TEXCOORD_0" : 2
                    },
                    "indices" : 3,
                    "material" : 0
                }
            ]
        }
    ],
    "textures" : [
        {
            "source" : 0
        }
    ],
    "images" : [
        {
            "mimeType" : "image/png",
            "name" : "rocktex",
            "uri" : "rocktex.png"
        }
    ],
    "accessors" : [
        {
            "bufferView" : 0,
            "componentType" : 5126,
            "count" : 997,
            "max" : [
                0.7606231570243835,
                0.884332001209259,
                0.6361101269721985
            ],
            "min" : [
                -0.7327065467834473,
                -0.7440149188041687,
                -0.6913347840309143
            ],
            "type" : "VEC3"
        },
        {
            "bufferView" : 1,
            "componentType" : 5126,
            "count" : 997,
            "type" : "VEC3"
        },
        {
            "bufferView" : 2,
            "componentType" : 5126,
            "count" : 997,
            "type" : "VEC2"
        },
        {
            "bufferView" : 3,
            "componentType" : 5123,
            "count" : 5748,
            "type" : "SCALAR"
        }
    ],
    "bufferViews" : [
        {
            "buffer" : 0,
            "byteLength" : 11964,
            "byteOffset" : 0
        },
        {
            "buffer" : 0,
            "byteLength" : 11964,
            "byteOffset" : 11964
        },
        {
            "buffer" : 0,
            "byteLength" : 7976,
            "byteOffset" : 23928
        },
        {
            "buffer" : 0,
            "byteLength" : 11496,
            "byteOffset" : 31904
        }
    ],
    "buffers" : [
        {
            "byteLength" : 43400,
            "uri" : "c4.bin"
        }
    ]
}
